<svg xmlns="http://www.w3.org/2000/svg" xmlns:xlink="http://www.w3.org/1999/xlink" width="1920" zoomAndPan="magnify" viewBox="0 0 1440 809.999993" height="1080" preserveAspectRatio="xMidYMid meet" version="1.0"><defs><g/><clipPath id="94b51cfa73"><path d="M 516 306 L 665 306 L 665 463 L 516 463 Z M 516 306 " clip-rule="nonzero"/></clipPath><clipPath id="81db197da6"><path d="M 507.628906 315.183594 L 664.488281 305.78125 L 673.503906 456.171875 L 516.644531 465.574219 Z M 507.628906 315.183594 " clip-rule="nonzero"/></clipPath><clipPath id="24b0f237dc"><path d="M 507.628906 315.183594 L 664.488281 305.78125 L 673.503906 456.171875 L 516.644531 465.574219 Z M 507.628906 315.183594 " clip-rule="nonzero"/></clipPath></defs><g clip-path="url(#94b51cfa73)"><g clip-path="url(#81db197da6)"><g clip-path="url(#24b0f237dc)"><path fill="#389bff" d="M 628.230469 425.46875 L 620.121094 418.277344 C 618.574219 416.910156 618.433594 414.550781 619.804688 413.007812 L 629.09375 402.53125 C 630.464844 400.988281 630.324219 398.628906 628.777344 397.257812 C 627.234375 395.890625 624.875 396.03125 623.507812 397.574219 L 606.902344 416.296875 C 605.191406 418.226562 602.242188 418.402344 600.316406 416.691406 C 598.386719 414.980469 598.210938 412.035156 599.921875 410.105469 L 627.671875 378.816406 C 629.042969 377.269531 628.902344 374.914062 627.355469 373.542969 C 625.8125 372.171875 623.453125 372.3125 622.085938 373.859375 L 562.644531 440.878906 C 560.933594 442.808594 557.984375 442.984375 556.058594 441.273438 C 554.128906 439.566406 553.953125 436.617188 555.664062 434.6875 L 603.957031 380.238281 C 605.328125 378.691406 605.183594 376.335938 603.640625 374.964844 C 602.09375 373.59375 599.738281 373.734375 598.367188 375.28125 L 579.535156 396.515625 C 578.164062 398.058594 575.808594 398.199219 574.261719 396.832031 L 572.863281 395.589844 C 571.320312 394.21875 571.175781 391.863281 572.546875 390.316406 L 602.527344 356.511719 C 603.898438 354.96875 603.757812 352.613281 602.210938 351.242188 C 600.667969 349.871094 598.308594 350.011719 596.9375 351.558594 L 526.308594 431.214844 C 524.597656 433.144531 521.648438 433.320312 519.722656 431.609375 C 517.792969 429.902344 517.617188 426.953125 519.328125 425.027344 L 578.816406 357.949219 C 580.1875 356.402344 580.046875 354.046875 578.503906 352.675781 C 576.957031 351.304688 574.601562 351.445312 573.230469 352.992188 L 563.945312 363.464844 C 562.578125 365.011719 560.21875 365.152344 558.675781 363.78125 L 550.566406 356.589844 C 548.492188 354.75 549.078125 351.367188 551.652344 350.332031 L 659.367188 307.105469 C 662.226562 305.957031 665.160156 308.5625 664.363281 311.535156 L 634.3125 423.640625 C 633.589844 426.320312 630.304688 427.308594 628.230469 425.46875 Z M 566.671875 403.992188 C 564.746094 402.285156 561.796875 402.460938 560.085938 404.386719 L 517.667969 452.214844 C 515.957031 454.144531 516.136719 457.089844 518.0625 458.800781 C 519.992188 460.511719 522.9375 460.335938 524.648438 458.40625 L 567.066406 410.578125 C 568.777344 408.652344 568.601562 405.703125 566.671875 403.992188 Z M 594.285156 423.492188 C 592.359375 421.78125 589.410156 421.957031 587.699219 423.886719 L 560.125 454.976562 C 558.417969 456.902344 558.59375 459.851562 560.523438 461.5625 C 562.449219 463.269531 565.398438 463.09375 567.105469 461.167969 L 594.679688 430.078125 C 596.390625 428.148438 596.214844 425.199219 594.285156 423.492188 Z M 553.363281 444.136719 C 551.484375 442.472656 548.605469 442.644531 546.941406 444.523438 C 545.273438 446.402344 545.445312 449.277344 547.324219 450.945312 C 549.203125 452.613281 552.082031 452.4375 553.746094 450.558594 C 555.414062 448.679688 555.242188 445.804688 553.363281 444.136719 Z M 553.363281 444.136719 " fill-opacity="1" fill-rule="nonzero"/></g></g></g><g fill="#000000" fill-opacity="1"><g transform="translate(616.597823, 387.845944)"><g><path d="M 29.875 0 L 28.3125 -19.6875 L 28.109375 -19.6875 L 21.296875 -0.203125 L 16.796875 -0.203125 L 9.984375 -19.6875 L 9.78125 -19.6875 L 8.21875 0 L 0.640625 0 L 3.625 -33.21875 L 11.671875 -33.21875 L 19.046875 -14.046875 L 26.421875 -33.21875 L 34.46875 -33.21875 L 37.453125 0 Z M 29.875 0 "/></g></g></g><g fill="#000000" fill-opacity="1"><g transform="translate(654.690491, 387.845944)"><g><path d="M 4.359375 -2.453125 C 2.066406 -4.492188 0.921875 -7.109375 0.921875 -10.296875 C 0.921875 -13.492188 2.113281 -16.117188 4.5 -18.171875 C 6.894531 -20.234375 9.851562 -21.265625 13.375 -21.265625 C 16.832031 -21.265625 19.75 -20.226562 22.125 -18.15625 C 24.5 -16.09375 25.6875 -13.476562 25.6875 -10.3125 C 25.6875 -7.144531 24.523438 -4.53125 22.203125 -2.46875 C 19.878906 -0.414062 16.9375 0.609375 13.375 0.609375 C 9.664062 0.609375 6.660156 -0.410156 4.359375 -2.453125 Z M 9.890625 -13.8125 C 8.960938 -12.894531 8.5 -11.722656 8.5 -10.296875 C 8.5 -8.878906 8.941406 -7.71875 9.828125 -6.8125 C 10.710938 -5.914062 11.878906 -5.46875 13.328125 -5.46875 C 14.722656 -5.46875 15.867188 -5.925781 16.765625 -6.84375 C 17.671875 -7.757812 18.125 -8.914062 18.125 -10.3125 C 18.125 -11.726562 17.660156 -12.894531 16.734375 -13.8125 C 15.804688 -14.726562 14.671875 -15.1875 13.328125 -15.1875 C 11.960938 -15.1875 10.816406 -14.726562 9.890625 -13.8125 Z M 9.890625 -13.8125 "/></g></g></g><g fill="#000000" fill-opacity="1"><g transform="translate(681.307041, 387.845944)"><g><path d="M 2.421875 0 L 2.421875 -20.65625 L 9.546875 -20.65625 L 9.546875 -18.484375 L 9.625 -18.484375 C 11.476562 -20.335938 13.453125 -21.265625 15.546875 -21.265625 C 16.566406 -21.265625 17.578125 -21.128906 18.578125 -20.859375 C 19.585938 -20.585938 20.554688 -20.171875 21.484375 -19.609375 C 22.410156 -19.046875 23.160156 -18.242188 23.734375 -17.203125 C 24.316406 -16.171875 24.609375 -14.972656 24.609375 -13.609375 L 24.609375 0 L 17.46875 0 L 17.46875 -11.671875 C 17.46875 -12.742188 17.125 -13.679688 16.4375 -14.484375 C 15.757812 -15.296875 14.867188 -15.703125 13.765625 -15.703125 C 12.691406 -15.703125 11.71875 -15.285156 10.84375 -14.453125 C 9.976562 -13.617188 9.546875 -12.691406 9.546875 -11.671875 L 9.546875 0 Z M 2.421875 0 "/></g></g></g><g fill="#000000" fill-opacity="1"><g transform="translate(707.923591, 387.845944)"><g><path d="M 4.359375 -2.453125 C 2.066406 -4.492188 0.921875 -7.109375 0.921875 -10.296875 C 0.921875 -13.492188 2.113281 -16.117188 4.5 -18.171875 C 6.894531 -20.234375 9.851562 -21.265625 13.375 -21.265625 C 16.832031 -21.265625 19.75 -20.226562 22.125 -18.15625 C 24.5 -16.09375 25.6875 -13.476562 25.6875 -10.3125 C 25.6875 -7.144531 24.523438 -4.53125 22.203125 -2.46875 C 19.878906 -0.414062 16.9375 0.609375 13.375 0.609375 C 9.664062 0.609375 6.660156 -0.410156 4.359375 -2.453125 Z M 9.890625 -13.8125 C 8.960938 -12.894531 8.5 -11.722656 8.5 -10.296875 C 8.5 -8.878906 8.941406 -7.71875 9.828125 -6.8125 C 10.710938 -5.914062 11.878906 -5.46875 13.328125 -5.46875 C 14.722656 -5.46875 15.867188 -5.925781 16.765625 -6.84375 C 17.671875 -7.757812 18.125 -8.914062 18.125 -10.3125 C 18.125 -11.726562 17.660156 -12.894531 16.734375 -13.8125 C 15.804688 -14.726562 14.671875 -15.1875 13.328125 -15.1875 C 11.960938 -15.1875 10.816406 -14.726562 9.890625 -13.8125 Z M 9.890625 -13.8125 "/></g></g></g><g fill="#389bff" fill-opacity="1"><g transform="translate(734.569961, 389.880061)"><g><path d="M 0.34375 -28.5 L 0.34375 -35.625 L 25.390625 -35.625 L 25.390625 -28.5 L 16.921875 -28.5 L 16.921875 0 L 8.8125 0 L 8.8125 -28.5 Z M 0.34375 -28.5 "/></g></g></g><g fill="#389bff" fill-opacity="1"><g transform="translate(760.307015, 389.880061)"><g><path d="M 25 -10.015625 L 8.9375 -10.015625 C 8.9375 -8.460938 9.441406 -7.3125 10.453125 -6.5625 C 11.460938 -5.8125 12.554688 -5.4375 13.734375 -5.4375 C 14.972656 -5.4375 15.953125 -5.601562 16.671875 -5.9375 C 17.390625 -6.269531 18.207031 -6.925781 19.125 -7.90625 L 24.65625 -5.140625 C 22.351562 -1.285156 18.523438 0.640625 13.171875 0.640625 C 9.828125 0.640625 6.960938 -0.5 4.578125 -2.78125 C 2.191406 -5.070312 1 -7.828125 1 -11.046875 C 1 -14.273438 2.191406 -17.039062 4.578125 -19.34375 C 6.960938 -21.644531 9.828125 -22.796875 13.171875 -22.796875 C 16.679688 -22.796875 19.535156 -21.78125 21.734375 -19.75 C 23.941406 -17.726562 25.046875 -14.832031 25.046875 -11.0625 C 25.046875 -10.539062 25.03125 -10.191406 25 -10.015625 Z M 9.15625 -14.25 L 17.578125 -14.25 C 17.398438 -15.40625 16.941406 -16.289062 16.203125 -16.90625 C 15.472656 -17.53125 14.535156 -17.84375 13.390625 -17.84375 C 12.117188 -17.84375 11.109375 -17.507812 10.359375 -16.84375 C 9.609375 -16.175781 9.207031 -15.3125 9.15625 -14.25 Z M 9.15625 -14.25 "/></g></g></g><g fill="#389bff" fill-opacity="1"><g transform="translate(786.346335, 389.880061)"><g><path d="M 14.375 -16.546875 C 12.9375 -16.546875 11.695312 -16.007812 10.65625 -14.9375 C 9.625 -13.875 9.109375 -12.59375 9.109375 -11.09375 C 9.109375 -9.570312 9.625 -8.273438 10.65625 -7.203125 C 11.695312 -6.140625 12.9375 -5.609375 14.375 -5.609375 C 15.070312 -5.609375 15.726562 -5.691406 16.34375 -5.859375 C 16.96875 -6.035156 17.421875 -6.210938 17.703125 -6.390625 L 18.09375 -6.65625 L 20.6875 -1.34375 C 20.488281 -1.195312 20.207031 -1.015625 19.84375 -0.796875 C 19.488281 -0.578125 18.671875 -0.285156 17.390625 0.078125 C 16.109375 0.453125 14.734375 0.640625 13.265625 0.640625 C 10.003906 0.640625 7.144531 -0.5 4.6875 -2.78125 C 2.226562 -5.070312 1 -7.816406 1 -11.015625 C 1 -14.234375 2.226562 -17 4.6875 -19.3125 C 7.144531 -21.632812 10.003906 -22.796875 13.265625 -22.796875 C 14.734375 -22.796875 16.082031 -22.625 17.3125 -22.28125 C 18.550781 -21.9375 19.429688 -21.59375 19.953125 -21.25 L 20.6875 -20.734375 L 18.09375 -15.5 C 17.144531 -16.195312 15.90625 -16.546875 14.375 -16.546875 Z M 14.375 -16.546875 "/></g></g></g><g fill="#389bff" fill-opacity="1"><g transform="translate(807.549164, 389.880061)"><g><path d="M 2.59375 0 L 2.59375 -37.140625 L 10.234375 -37.140625 L 10.234375 -19.828125 L 10.328125 -19.828125 C 12.304688 -21.804688 14.421875 -22.796875 16.671875 -22.796875 C 17.765625 -22.796875 18.847656 -22.648438 19.921875 -22.359375 C 21.003906 -22.078125 22.039062 -21.632812 23.03125 -21.03125 C 24.03125 -20.425781 24.835938 -19.566406 25.453125 -18.453125 C 26.078125 -17.347656 26.390625 -16.0625 26.390625 -14.59375 L 26.390625 0 L 18.75 0 L 18.75 -12.53125 C 18.75 -13.675781 18.378906 -14.679688 17.640625 -15.546875 C 16.910156 -16.410156 15.953125 -16.84375 14.765625 -16.84375 C 13.617188 -16.84375 12.578125 -16.394531 11.640625 -15.5 C 10.703125 -14.613281 10.234375 -13.625 10.234375 -12.53125 L 10.234375 0 Z M 2.59375 0 "/></g></g></g><g fill="#000000" fill-opacity="1"><g transform="translate(763.129648, 419.153586)"><g><path d="M 6.90625 -19.6875 C 8.269531 -19.6875 9.375 -19.179688 10.21875 -18.171875 C 11.0625 -17.171875 11.484375 -15.859375 11.484375 -14.234375 C 11.484375 -12.628906 11.070312 -11.332031 10.25 -10.34375 C 9.425781 -9.363281 8.335938 -8.875 6.984375 -8.875 L 4.09375 -8.875 C 4.019531 -8.875 3.984375 -8.835938 3.984375 -8.765625 L 3.984375 -0.28125 C 3.984375 -0.09375 3.890625 0 3.703125 0 L 2.28125 0 C 2.09375 0 2 -0.09375 2 -0.28125 L 2 -19.40625 C 2 -19.59375 2.09375 -19.6875 2.28125 -19.6875 Z M 6.65625 -10.5 C 7.5 -10.5 8.179688 -10.832031 8.703125 -11.5 C 9.222656 -12.175781 9.484375 -13.078125 9.484375 -14.203125 C 9.484375 -15.328125 9.222656 -16.226562 8.703125 -16.90625 C 8.179688 -17.59375 7.5 -17.9375 6.65625 -17.9375 L 4.09375 -17.9375 C 4.019531 -17.9375 3.984375 -17.898438 3.984375 -17.828125 L 3.984375 -10.609375 C 3.984375 -10.535156 4.019531 -10.5 4.09375 -10.5 Z M 6.65625 -10.5 "/></g></g></g><g fill="#000000" fill-opacity="1"><g transform="translate(775.537198, 419.153586)"><g><path d="M 4.5 0 C 4.320312 0 4.21875 -0.0820312 4.1875 -0.25 L 0.703125 -13.90625 L 0.671875 -14.015625 C 0.671875 -14.140625 0.753906 -14.203125 0.921875 -14.203125 L 2.5625 -14.203125 C 2.726562 -14.203125 2.828125 -14.117188 2.859375 -13.953125 L 5.28125 -3.3125 C 5.300781 -3.257812 5.316406 -3.234375 5.328125 -3.234375 C 5.347656 -3.234375 5.367188 -3.257812 5.390625 -3.3125 L 7.78125 -13.953125 C 7.8125 -14.117188 7.914062 -14.203125 8.09375 -14.203125 L 9.71875 -14.171875 C 9.8125 -14.171875 9.878906 -14.144531 9.921875 -14.09375 C 9.972656 -14.039062 9.976562 -13.96875 9.9375 -13.875 L 6.484375 -0.25 C 6.460938 -0.0820312 6.359375 0 6.171875 0 Z M 4.5 0 "/></g></g></g><g fill="#000000" fill-opacity="1"><g transform="translate(786.176259, 419.153586)"><g><path d="M 6.703125 -13 C 6.703125 -12.8125 6.613281 -12.71875 6.4375 -12.71875 L 4.296875 -12.71875 C 4.222656 -12.71875 4.1875 -12.679688 4.1875 -12.609375 L 4.1875 -4.015625 C 4.1875 -3.148438 4.332031 -2.550781 4.625 -2.21875 C 4.925781 -1.894531 5.390625 -1.742188 6.015625 -1.765625 L 6.296875 -1.765625 C 6.472656 -1.765625 6.5625 -1.671875 6.5625 -1.484375 L 6.5625 -0.28125 C 6.5625 -0.09375 6.472656 0 6.296875 0 L 5.59375 0 C 4.488281 0 3.648438 -0.238281 3.078125 -0.71875 C 2.503906 -1.195312 2.21875 -2.097656 2.21875 -3.421875 L 2.21875 -12.609375 C 2.21875 -12.679688 2.179688 -12.71875 2.109375 -12.71875 L 1.015625 -12.71875 C 0.828125 -12.71875 0.734375 -12.8125 0.734375 -13 L 0.734375 -13.921875 C 0.734375 -14.109375 0.828125 -14.203125 1.015625 -14.203125 L 2.109375 -14.203125 C 2.179688 -14.203125 2.21875 -14.238281 2.21875 -14.3125 L 2.21875 -17.46875 C 2.21875 -17.65625 2.3125 -17.75 2.5 -17.75 L 3.90625 -17.75 C 4.09375 -17.75 4.1875 -17.65625 4.1875 -17.46875 L 4.1875 -14.3125 C 4.1875 -14.238281 4.222656 -14.203125 4.296875 -14.203125 L 6.4375 -14.203125 C 6.613281 -14.203125 6.703125 -14.109375 6.703125 -13.921875 Z M 6.703125 -13 "/></g></g></g><g fill="#000000" fill-opacity="1"><g transform="translate(793.67133, 419.153586)"><g><path d="M 2.671875 -0.0625 C 2.203125 -0.0625 1.820312 -0.207031 1.53125 -0.5 C 1.25 -0.800781 1.109375 -1.175781 1.109375 -1.625 C 1.109375 -2.09375 1.25 -2.472656 1.53125 -2.765625 C 1.820312 -3.054688 2.203125 -3.203125 2.671875 -3.203125 C 3.117188 -3.203125 3.492188 -3.054688 3.796875 -2.765625 C 4.097656 -2.472656 4.25 -2.09375 4.25 -1.625 C 4.25 -1.175781 4.097656 -0.800781 3.796875 -0.5 C 3.492188 -0.207031 3.117188 -0.0625 2.671875 -0.0625 Z M 2.671875 -0.0625 "/></g></g></g><g fill="#000000" fill-opacity="1"><g transform="translate(799.004902, 419.153586)"><g/></g></g><g fill="#000000" fill-opacity="1"><g transform="translate(804.619185, 419.153586)"><g><path d="M 2.296875 0 C 2.109375 0 2.015625 -0.09375 2.015625 -0.28125 L 2.015625 -19.375 C 2.015625 -19.5625 2.109375 -19.65625 2.296875 -19.65625 L 3.734375 -19.65625 C 3.921875 -19.65625 4.015625 -19.5625 4.015625 -19.375 L 4.015625 -1.859375 C 4.015625 -1.773438 4.050781 -1.734375 4.125 -1.734375 L 10.5625 -1.734375 C 10.75 -1.734375 10.84375 -1.640625 10.84375 -1.453125 L 10.84375 -0.28125 C 10.84375 -0.09375 10.75 0 10.5625 0 Z M 2.296875 0 "/></g></g></g><g fill="#000000" fill-opacity="1"><g transform="translate(815.735451, 419.153586)"><g><path d="M 6.703125 -13 C 6.703125 -12.8125 6.613281 -12.71875 6.4375 -12.71875 L 4.296875 -12.71875 C 4.222656 -12.71875 4.1875 -12.679688 4.1875 -12.609375 L 4.1875 -4.015625 C 4.1875 -3.148438 4.332031 -2.550781 4.625 -2.21875 C 4.925781 -1.894531 5.390625 -1.742188 6.015625 -1.765625 L 6.296875 -1.765625 C 6.472656 -1.765625 6.5625 -1.671875 6.5625 -1.484375 L 6.5625 -0.28125 C 6.5625 -0.09375 6.472656 0 6.296875 0 L 5.59375 0 C 4.488281 0 3.648438 -0.238281 3.078125 -0.71875 C 2.503906 -1.195312 2.21875 -2.097656 2.21875 -3.421875 L 2.21875 -12.609375 C 2.21875 -12.679688 2.179688 -12.71875 2.109375 -12.71875 L 1.015625 -12.71875 C 0.828125 -12.71875 0.734375 -12.8125 0.734375 -13 L 0.734375 -13.921875 C 0.734375 -14.109375 0.828125 -14.203125 1.015625 -14.203125 L 2.109375 -14.203125 C 2.179688 -14.203125 2.21875 -14.238281 2.21875 -14.3125 L 2.21875 -17.46875 C 2.21875 -17.65625 2.3125 -17.75 2.5 -17.75 L 3.90625 -17.75 C 4.09375 -17.75 4.1875 -17.65625 4.1875 -17.46875 L 4.1875 -14.3125 C 4.1875 -14.238281 4.222656 -14.203125 4.296875 -14.203125 L 6.4375 -14.203125 C 6.613281 -14.203125 6.703125 -14.109375 6.703125 -13.921875 Z M 6.703125 -13 "/></g></g></g><g fill="#000000" fill-opacity="1"><g transform="translate(823.230522, 419.153586)"><g><path d="M 8.171875 -19.375 C 8.171875 -19.5625 8.265625 -19.65625 8.453125 -19.65625 L 9.890625 -19.65625 C 10.078125 -19.65625 10.171875 -19.5625 10.171875 -19.375 L 10.171875 -0.28125 C 10.171875 -0.09375 10.078125 0 9.890625 0 L 8.453125 0 C 8.265625 0 8.171875 -0.09375 8.171875 -0.28125 L 8.171875 -0.90625 C 8.171875 -0.9375 8.15625 -0.960938 8.125 -0.984375 C 8.101562 -1.003906 8.070312 -0.992188 8.03125 -0.953125 C 7.320312 -0.171875 6.421875 0.21875 5.328125 0.21875 C 4.128906 0.21875 3.175781 -0.175781 2.46875 -0.96875 C 1.757812 -1.757812 1.40625 -2.796875 1.40625 -4.078125 L 1.40625 -10.140625 C 1.40625 -11.453125 1.757812 -12.492188 2.46875 -13.265625 C 3.175781 -14.046875 4.128906 -14.4375 5.328125 -14.4375 C 6.429688 -14.4375 7.332031 -14.03125 8.03125 -13.21875 C 8.070312 -13.1875 8.101562 -13.175781 8.125 -13.1875 C 8.15625 -13.207031 8.171875 -13.238281 8.171875 -13.28125 Z M 5.8125 -1.515625 C 6.5 -1.515625 7.0625 -1.757812 7.5 -2.25 C 7.945312 -2.75 8.171875 -3.394531 8.171875 -4.1875 L 8.171875 -10 C 8.171875 -10.800781 7.945312 -11.445312 7.5 -11.9375 C 7.0625 -12.4375 6.5 -12.6875 5.8125 -12.6875 C 5.101562 -12.6875 4.519531 -12.4375 4.0625 -11.9375 C 3.601562 -11.445312 3.375 -10.800781 3.375 -10 L 3.375 -4.1875 C 3.375 -3.394531 3.601562 -2.75 4.0625 -2.25 C 4.519531 -1.757812 5.101562 -1.515625 5.8125 -1.515625 Z M 5.8125 -1.515625 "/></g></g></g><g fill="#000000" fill-opacity="1"><g transform="translate(835.10473, 419.153586)"><g><path d="M 2.671875 -0.0625 C 2.203125 -0.0625 1.820312 -0.207031 1.53125 -0.5 C 1.25 -0.800781 1.109375 -1.175781 1.109375 -1.625 C 1.109375 -2.09375 1.25 -2.472656 1.53125 -2.765625 C 1.820312 -3.054688 2.203125 -3.203125 2.671875 -3.203125 C 3.117188 -3.203125 3.492188 -3.054688 3.796875 -2.765625 C 4.097656 -2.472656 4.25 -2.09375 4.25 -1.625 C 4.25 -1.175781 4.097656 -0.800781 3.796875 -0.5 C 3.492188 -0.207031 3.117188 -0.0625 2.671875 -0.0625 Z M 2.671875 -0.0625 "/></g></g></g><g fill="#000000" fill-opacity="1"><g transform="translate(599.526528, 447.822)"><g><path d="M 15 -12.328125 C 15 -12.140625 14.90625 -12.046875 14.71875 -12.046875 L 12.9375 -12.046875 C 12.84375 -12.046875 12.796875 -12.007812 12.796875 -11.9375 L 12.15625 -7.46875 C 12.15625 -7.394531 12.179688 -7.359375 12.234375 -7.359375 L 13.78125 -7.359375 C 13.96875 -7.359375 14.0625 -7.265625 14.0625 -7.078125 L 14.0625 -5.890625 C 14.0625 -5.703125 13.96875 -5.609375 13.78125 -5.609375 L 11.96875 -5.609375 C 11.875 -5.609375 11.828125 -5.570312 11.828125 -5.5 L 11.125 -0.703125 C 11.101562 -0.535156 11.007812 -0.453125 10.84375 -0.453125 L 9.40625 -0.5 C 9.332031 -0.5 9.265625 -0.523438 9.203125 -0.578125 C 9.148438 -0.640625 9.132812 -0.71875 9.15625 -0.8125 L 9.828125 -5.5 C 9.828125 -5.570312 9.800781 -5.609375 9.75 -5.609375 L 5.640625 -5.609375 C 5.546875 -5.609375 5.5 -5.570312 5.5 -5.5 L 4.796875 -0.703125 C 4.773438 -0.535156 4.679688 -0.453125 4.515625 -0.453125 L 3.09375 -0.5 C 3.007812 -0.5 2.941406 -0.523438 2.890625 -0.578125 C 2.835938 -0.640625 2.816406 -0.71875 2.828125 -0.8125 L 3.515625 -5.5 C 3.515625 -5.570312 3.484375 -5.609375 3.421875 -5.609375 L 1.828125 -5.609375 C 1.640625 -5.609375 1.546875 -5.703125 1.546875 -5.890625 L 1.546875 -7.078125 C 1.546875 -7.265625 1.640625 -7.359375 1.828125 -7.359375 L 3.671875 -7.359375 C 3.765625 -7.359375 3.8125 -7.394531 3.8125 -7.46875 L 4.46875 -11.9375 C 4.46875 -12.007812 4.4375 -12.046875 4.375 -12.046875 L 2.75 -12.046875 C 2.5625 -12.046875 2.46875 -12.140625 2.46875 -12.328125 L 2.46875 -13.53125 C 2.46875 -13.71875 2.5625 -13.8125 2.75 -13.8125 L 4.65625 -13.8125 C 4.75 -13.8125 4.796875 -13.847656 4.796875 -13.921875 L 5.5 -18.734375 C 5.519531 -18.898438 5.613281 -18.984375 5.78125 -18.984375 L 7.21875 -18.921875 C 7.289062 -18.921875 7.351562 -18.890625 7.40625 -18.828125 C 7.46875 -18.773438 7.488281 -18.703125 7.46875 -18.609375 L 6.796875 -13.921875 C 6.796875 -13.847656 6.820312 -13.8125 6.875 -13.8125 L 10.984375 -13.8125 C 11.078125 -13.8125 11.125 -13.847656 11.125 -13.921875 L 11.828125 -18.734375 C 11.835938 -18.898438 11.929688 -18.984375 12.109375 -18.984375 L 13.53125 -18.921875 C 13.601562 -18.921875 13.664062 -18.890625 13.71875 -18.828125 C 13.78125 -18.773438 13.800781 -18.703125 13.78125 -18.609375 L 13.109375 -13.921875 C 13.109375 -13.847656 13.140625 -13.8125 13.203125 -13.8125 L 14.71875 -13.8125 C 14.90625 -13.8125 15 -13.71875 15 -13.53125 Z M 10 -7.359375 C 10.09375 -7.359375 10.140625 -7.394531 10.140625 -7.46875 L 10.78125 -11.9375 C 10.78125 -12.007812 10.753906 -12.046875 10.703125 -12.046875 L 6.625 -12.046875 C 6.53125 -12.046875 6.484375 -12.007812 6.484375 -11.9375 L 5.84375 -7.46875 C 5.84375 -7.394531 5.867188 -7.359375 5.921875 -7.359375 Z M 10 -7.359375 "/></g></g></g><g fill="#000000" fill-opacity="1"><g transform="translate(616.060584, 447.822)"><g><path d="M 10.921875 -18.1875 C 10.921875 -18 10.828125 -17.90625 10.640625 -17.90625 L 4.125 -17.90625 C 4.050781 -17.90625 4.015625 -17.867188 4.015625 -17.796875 L 4.015625 -10.84375 C 4.015625 -10.757812 4.050781 -10.71875 4.125 -10.71875 L 8.234375 -10.71875 C 8.410156 -10.71875 8.5 -10.625 8.5 -10.4375 L 8.5 -9.234375 C 8.5 -9.046875 8.410156 -8.953125 8.234375 -8.953125 L 4.125 -8.953125 C 4.050781 -8.953125 4.015625 -8.914062 4.015625 -8.84375 L 4.015625 -1.859375 C 4.015625 -1.773438 4.050781 -1.734375 4.125 -1.734375 L 10.640625 -1.734375 C 10.828125 -1.734375 10.921875 -1.640625 10.921875 -1.453125 L 10.921875 -0.28125 C 10.921875 -0.09375 10.828125 0 10.640625 0 L 2.296875 0 C 2.109375 0 2.015625 -0.09375 2.015625 -0.28125 L 2.015625 -19.375 C 2.015625 -19.5625 2.109375 -19.65625 2.296875 -19.65625 L 10.640625 -19.65625 C 10.828125 -19.65625 10.921875 -19.5625 10.921875 -19.375 Z M 10.921875 -18.1875 "/></g></g></g><g fill="#000000" fill-opacity="1"><g transform="translate(628.103204, 447.822)"><g><path d="M 13.078125 -14.40625 C 14.203125 -14.40625 15.070312 -13.992188 15.6875 -13.171875 C 16.3125 -12.347656 16.625 -11.207031 16.625 -9.75 L 16.625 -0.28125 C 16.625 -0.09375 16.53125 0 16.34375 0 L 14.9375 0 C 14.75 0 14.65625 -0.09375 14.65625 -0.28125 L 14.65625 -9.578125 C 14.65625 -10.523438 14.453125 -11.273438 14.046875 -11.828125 C 13.648438 -12.378906 13.125 -12.65625 12.46875 -12.65625 C 11.757812 -12.65625 11.195312 -12.382812 10.78125 -11.84375 C 10.375 -11.300781 10.171875 -10.5625 10.171875 -9.625 L 10.171875 -0.28125 C 10.171875 -0.09375 10.078125 0 9.890625 0 L 8.453125 0 C 8.265625 0 8.171875 -0.09375 8.171875 -0.28125 L 8.171875 -9.578125 C 8.171875 -10.523438 7.96875 -11.273438 7.5625 -11.828125 C 7.164062 -12.378906 6.648438 -12.65625 6.015625 -12.65625 C 5.296875 -12.65625 4.722656 -12.382812 4.296875 -11.84375 C 3.878906 -11.300781 3.671875 -10.5625 3.671875 -9.625 L 3.671875 -0.28125 C 3.671875 -0.09375 3.578125 0 3.390625 0 L 2 0 C 1.8125 0 1.71875 -0.09375 1.71875 -0.28125 L 1.71875 -13.921875 C 1.71875 -14.109375 1.8125 -14.203125 2 -14.203125 L 3.390625 -14.203125 C 3.578125 -14.203125 3.671875 -14.109375 3.671875 -13.921875 L 3.671875 -13.0625 C 3.671875 -13.019531 3.6875 -12.992188 3.71875 -12.984375 C 3.75 -12.972656 3.78125 -12.988281 3.8125 -13.03125 C 4.175781 -13.5 4.597656 -13.84375 5.078125 -14.0625 C 5.566406 -14.289062 6.082031 -14.40625 6.625 -14.40625 C 7.332031 -14.40625 7.945312 -14.226562 8.46875 -13.875 C 9 -13.53125 9.40625 -13.039062 9.6875 -12.40625 C 9.707031 -12.375 9.734375 -12.359375 9.765625 -12.359375 C 9.804688 -12.359375 9.835938 -12.382812 9.859375 -12.4375 C 10.191406 -13.113281 10.648438 -13.609375 11.234375 -13.921875 C 11.816406 -14.242188 12.429688 -14.40625 13.078125 -14.40625 Z M 13.078125 -14.40625 "/></g></g></g><g fill="#000000" fill-opacity="1"><g transform="translate(646.293474, 447.822)"><g><path d="M 5.875 -14.4375 C 7.175781 -14.4375 8.21875 -14.007812 9 -13.15625 C 9.789062 -12.300781 10.1875 -11.164062 10.1875 -9.75 L 10.1875 -0.28125 C 10.1875 -0.09375 10.09375 0 9.90625 0 L 8.484375 0 C 8.296875 0 8.203125 -0.09375 8.203125 -0.28125 L 8.203125 -1.125 C 8.203125 -1.15625 8.1875 -1.175781 8.15625 -1.1875 C 8.125 -1.195312 8.09375 -1.1875 8.0625 -1.15625 C 7.363281 -0.238281 6.320312 0.21875 4.9375 0.21875 C 3.90625 0.21875 3.007812 -0.0703125 2.25 -0.65625 C 1.5 -1.25 1.125 -2.296875 1.125 -3.796875 C 1.125 -5.378906 1.582031 -6.539062 2.5 -7.28125 C 3.414062 -8.019531 4.625 -8.390625 6.125 -8.390625 L 8.09375 -8.390625 C 8.164062 -8.390625 8.203125 -8.425781 8.203125 -8.5 L 8.203125 -9.609375 C 8.203125 -10.535156 7.984375 -11.28125 7.546875 -11.84375 C 7.117188 -12.40625 6.539062 -12.6875 5.8125 -12.6875 C 5.25 -12.6875 4.765625 -12.5 4.359375 -12.125 C 3.960938 -11.75 3.726562 -11.273438 3.65625 -10.703125 C 3.65625 -10.515625 3.5625 -10.421875 3.375 -10.421875 L 1.796875 -10.4375 C 1.703125 -10.4375 1.628906 -10.460938 1.578125 -10.515625 C 1.535156 -10.578125 1.523438 -10.644531 1.546875 -10.71875 C 1.640625 -11.820312 2.085938 -12.71875 2.890625 -13.40625 C 3.691406 -14.09375 4.6875 -14.4375 5.875 -14.4375 Z M 5.359375 -1.515625 C 6.128906 -1.515625 6.796875 -1.757812 7.359375 -2.25 C 7.921875 -2.75 8.203125 -3.441406 8.203125 -4.328125 L 8.203125 -6.6875 C 8.203125 -6.757812 8.164062 -6.796875 8.09375 -6.796875 L 6.09375 -6.796875 C 5.195312 -6.796875 4.484375 -6.554688 3.953125 -6.078125 C 3.429688 -5.597656 3.171875 -4.890625 3.171875 -3.953125 C 3.171875 -3.128906 3.367188 -2.515625 3.765625 -2.109375 C 4.171875 -1.710938 4.703125 -1.515625 5.359375 -1.515625 Z M 5.359375 -1.515625 "/></g></g></g><g fill="#000000" fill-opacity="1"><g transform="translate(657.88697, 447.822)"><g><path d="M 2.921875 -16.796875 C 2.453125 -16.796875 2.070312 -16.941406 1.78125 -17.234375 C 1.488281 -17.535156 1.34375 -17.910156 1.34375 -18.359375 C 1.34375 -18.828125 1.488281 -19.207031 1.78125 -19.5 C 2.070312 -19.789062 2.453125 -19.9375 2.921875 -19.9375 C 3.367188 -19.9375 3.738281 -19.789062 4.03125 -19.5 C 4.320312 -19.207031 4.46875 -18.828125 4.46875 -18.359375 C 4.46875 -17.910156 4.320312 -17.535156 4.03125 -17.234375 C 3.738281 -16.941406 3.367188 -16.796875 2.921875 -16.796875 Z M 2.21875 0 C 2.03125 0 1.9375 -0.09375 1.9375 -0.28125 L 1.9375 -13.921875 C 1.9375 -14.109375 2.03125 -14.203125 2.21875 -14.203125 L 3.65625 -14.203125 C 3.84375 -14.203125 3.9375 -14.109375 3.9375 -13.921875 L 3.9375 -0.28125 C 3.9375 -0.09375 3.84375 0 3.65625 0 Z M 2.21875 0 "/></g></g></g><g fill="#000000" fill-opacity="1"><g transform="translate(663.725827, 447.822)"><g><path d="M 1.828125 0 C 1.640625 0 1.546875 -0.09375 1.546875 -0.28125 L 1.546875 -19.375 C 1.546875 -19.5625 1.640625 -19.65625 1.828125 -19.65625 L 3.25 -19.65625 C 3.4375 -19.65625 3.53125 -19.5625 3.53125 -19.375 L 3.53125 -0.28125 C 3.53125 -0.09375 3.4375 0 3.25 0 Z M 1.828125 0 "/></g></g></g><g fill="#000000" fill-opacity="1"><g transform="translate(668.806743, 447.822)"><g><path d="M 0.90625 0 C 0.71875 0 0.625 -0.09375 0.625 -0.28125 L 0.625 -1.3125 C 0.625 -1.5 0.71875 -1.59375 0.90625 -1.59375 L 9.65625 -1.59375 C 9.84375 -1.59375 9.9375 -1.5 9.9375 -1.3125 L 9.9375 -0.28125 C 9.9375 -0.09375 9.84375 0 9.65625 0 Z M 0.90625 0 "/></g></g></g><g fill="#000000" fill-opacity="1"><g transform="translate(679.361587, 447.822)"><g><path d="M 10.578125 -19.453125 C 10.640625 -19.585938 10.753906 -19.65625 10.921875 -19.65625 L 12.375 -19.65625 C 12.5625 -19.65625 12.65625 -19.5625 12.65625 -19.375 L 12.65625 -0.28125 C 12.65625 -0.09375 12.5625 0 12.375 0 L 10.953125 0 C 10.765625 0 10.671875 -0.09375 10.671875 -0.28125 L 10.671875 -15.328125 C 10.671875 -15.390625 10.65625 -15.421875 10.625 -15.421875 C 10.59375 -15.421875 10.5625 -15.398438 10.53125 -15.359375 L 7.609375 -9.296875 C 7.554688 -9.160156 7.460938 -9.09375 7.328125 -9.09375 C 7.179688 -9.09375 7.078125 -9.160156 7.015625 -9.296875 L 4.09375 -15.328125 C 4.0625 -15.367188 4.03125 -15.390625 4 -15.390625 C 3.96875 -15.390625 3.953125 -15.359375 3.953125 -15.296875 L 3.953125 -0.28125 C 3.953125 -0.09375 3.859375 0 3.671875 0 L 2.25 0 C 2.0625 0 1.96875 -0.09375 1.96875 -0.28125 L 1.96875 -19.375 C 1.96875 -19.5625 2.0625 -19.65625 2.25 -19.65625 L 3.703125 -19.65625 C 3.867188 -19.65625 3.984375 -19.585938 4.046875 -19.453125 L 7.25 -12.96875 C 7.257812 -12.9375 7.285156 -12.921875 7.328125 -12.921875 C 7.367188 -12.921875 7.394531 -12.9375 7.40625 -12.96875 Z M 10.578125 -19.453125 "/></g></g></g><g fill="#000000" fill-opacity="1"><g transform="translate(693.986774, 447.822)"><g><path d="M 5.875 -14.4375 C 7.175781 -14.4375 8.21875 -14.007812 9 -13.15625 C 9.789062 -12.300781 10.1875 -11.164062 10.1875 -9.75 L 10.1875 -0.28125 C 10.1875 -0.09375 10.09375 0 9.90625 0 L 8.484375 0 C 8.296875 0 8.203125 -0.09375 8.203125 -0.28125 L 8.203125 -1.125 C 8.203125 -1.15625 8.1875 -1.175781 8.15625 -1.1875 C 8.125 -1.195312 8.09375 -1.1875 8.0625 -1.15625 C 7.363281 -0.238281 6.320312 0.21875 4.9375 0.21875 C 3.90625 0.21875 3.007812 -0.0703125 2.25 -0.65625 C 1.5 -1.25 1.125 -2.296875 1.125 -3.796875 C 1.125 -5.378906 1.582031 -6.539062 2.5 -7.28125 C 3.414062 -8.019531 4.625 -8.390625 6.125 -8.390625 L 8.09375 -8.390625 C 8.164062 -8.390625 8.203125 -8.425781 8.203125 -8.5 L 8.203125 -9.609375 C 8.203125 -10.535156 7.984375 -11.28125 7.546875 -11.84375 C 7.117188 -12.40625 6.539062 -12.6875 5.8125 -12.6875 C 5.25 -12.6875 4.765625 -12.5 4.359375 -12.125 C 3.960938 -11.75 3.726562 -11.273438 3.65625 -10.703125 C 3.65625 -10.515625 3.5625 -10.421875 3.375 -10.421875 L 1.796875 -10.4375 C 1.703125 -10.4375 1.628906 -10.460938 1.578125 -10.515625 C 1.535156 -10.578125 1.523438 -10.644531 1.546875 -10.71875 C 1.640625 -11.820312 2.085938 -12.71875 2.890625 -13.40625 C 3.691406 -14.09375 4.6875 -14.4375 5.875 -14.4375 Z M 5.359375 -1.515625 C 6.128906 -1.515625 6.796875 -1.757812 7.359375 -2.25 C 7.921875 -2.75 8.203125 -3.441406 8.203125 -4.328125 L 8.203125 -6.6875 C 8.203125 -6.757812 8.164062 -6.796875 8.09375 -6.796875 L 6.09375 -6.796875 C 5.195312 -6.796875 4.484375 -6.554688 3.953125 -6.078125 C 3.429688 -5.597656 3.171875 -4.890625 3.171875 -3.953125 C 3.171875 -3.128906 3.367188 -2.515625 3.765625 -2.109375 C 4.171875 -1.710938 4.703125 -1.515625 5.359375 -1.515625 Z M 5.359375 -1.515625 "/></g></g></g><g fill="#000000" fill-opacity="1"><g transform="translate(705.58027, 447.822)"><g><path d="M 6.515625 -14.34375 C 6.984375 -14.34375 7.382812 -14.238281 7.71875 -14.03125 C 7.851562 -13.957031 7.898438 -13.835938 7.859375 -13.671875 L 7.53125 -12.21875 C 7.507812 -12.050781 7.394531 -11.992188 7.1875 -12.046875 C 6.957031 -12.160156 6.675781 -12.21875 6.34375 -12.21875 C 6.195312 -12.21875 6.085938 -12.207031 6.015625 -12.1875 C 5.335938 -12.144531 4.78125 -11.789062 4.34375 -11.125 C 3.914062 -10.46875 3.703125 -9.660156 3.703125 -8.703125 L 3.703125 -0.28125 C 3.703125 -0.09375 3.609375 0 3.421875 0 L 2 0 C 1.8125 0 1.71875 -0.09375 1.71875 -0.28125 L 1.71875 -13.921875 C 1.71875 -14.109375 1.8125 -14.203125 2 -14.203125 L 3.421875 -14.203125 C 3.609375 -14.203125 3.703125 -14.109375 3.703125 -13.921875 L 3.703125 -12.234375 C 3.703125 -12.179688 3.71875 -12.15625 3.75 -12.15625 C 3.78125 -12.15625 3.8125 -12.175781 3.84375 -12.21875 C 4.382812 -13.632812 5.273438 -14.34375 6.515625 -14.34375 Z M 6.515625 -14.34375 "/></g></g></g><g fill="#000000" fill-opacity="1"><g transform="translate(713.77712, 447.822)"><g><path d="M 2 0 C 1.8125 0 1.71875 -0.09375 1.71875 -0.28125 L 1.71875 -19.375 C 1.71875 -19.5625 1.8125 -19.65625 2 -19.65625 L 3.421875 -19.65625 C 3.609375 -19.65625 3.703125 -19.5625 3.703125 -19.375 L 3.703125 -8.09375 C 3.703125 -8.050781 3.71875 -8.019531 3.75 -8 C 3.789062 -7.976562 3.820312 -7.988281 3.84375 -8.03125 L 8.0625 -14.03125 C 8.132812 -14.144531 8.242188 -14.203125 8.390625 -14.203125 L 9.859375 -14.203125 C 9.972656 -14.203125 10.046875 -14.171875 10.078125 -14.109375 C 10.117188 -14.046875 10.101562 -13.96875 10.03125 -13.875 L 7.25 -9.890625 C 7.1875 -9.828125 7.175781 -9.769531 7.21875 -9.71875 L 10.53125 -0.3125 L 10.5625 -0.203125 C 10.5625 -0.0664062 10.472656 0 10.296875 0 L 8.8125 0 C 8.644531 0 8.535156 -0.0703125 8.484375 -0.21875 L 5.984375 -8.03125 C 5.960938 -8.144531 5.90625 -8.15625 5.8125 -8.0625 L 3.765625 -5.140625 C 3.722656 -5.097656 3.703125 -5.050781 3.703125 -5 L 3.703125 -0.28125 C 3.703125 -0.09375 3.609375 0 3.421875 0 Z M 2 0 "/></g></g></g><g fill="#000000" fill-opacity="1"><g transform="translate(725.146042, 447.822)"><g><path d="M 10.1875 -6.625 C 10.1875 -6.4375 10.09375 -6.34375 9.90625 -6.34375 L 3.515625 -6.34375 C 3.429688 -6.34375 3.390625 -6.304688 3.390625 -6.234375 L 3.390625 -4.1875 C 3.390625 -3.394531 3.609375 -2.75 4.046875 -2.25 C 4.492188 -1.757812 5.070312 -1.515625 5.78125 -1.515625 C 6.382812 -1.515625 6.894531 -1.695312 7.3125 -2.0625 C 7.738281 -2.425781 8.015625 -2.898438 8.140625 -3.484375 C 8.203125 -3.648438 8.304688 -3.734375 8.453125 -3.734375 L 9.859375 -3.671875 C 9.929688 -3.671875 9.992188 -3.644531 10.046875 -3.59375 C 10.109375 -3.539062 10.128906 -3.46875 10.109375 -3.375 C 9.960938 -2.269531 9.507812 -1.394531 8.75 -0.75 C 7.988281 -0.101562 7 0.21875 5.78125 0.21875 C 4.457031 0.21875 3.394531 -0.171875 2.59375 -0.953125 C 1.800781 -1.742188 1.40625 -2.785156 1.40625 -4.078125 L 1.40625 -10.140625 C 1.40625 -11.410156 1.800781 -12.441406 2.59375 -13.234375 C 3.394531 -14.035156 4.457031 -14.4375 5.78125 -14.4375 C 7.132812 -14.4375 8.207031 -14.035156 9 -13.234375 C 9.789062 -12.441406 10.1875 -11.410156 10.1875 -10.140625 Z M 5.78125 -12.6875 C 5.070312 -12.6875 4.492188 -12.4375 4.046875 -11.9375 C 3.609375 -11.445312 3.390625 -10.800781 3.390625 -10 L 3.390625 -8.109375 C 3.390625 -8.035156 3.429688 -8 3.515625 -8 L 8.109375 -8 C 8.191406 -8 8.234375 -8.035156 8.234375 -8.109375 L 8.234375 -10 C 8.234375 -10.800781 8.003906 -11.445312 7.546875 -11.9375 C 7.097656 -12.4375 6.507812 -12.6875 5.78125 -12.6875 Z M 5.78125 -12.6875 "/></g></g></g><g fill="#000000" fill-opacity="1"><g transform="translate(736.571101, 447.822)"><g><path d="M 6.703125 -13 C 6.703125 -12.8125 6.613281 -12.71875 6.4375 -12.71875 L 4.296875 -12.71875 C 4.222656 -12.71875 4.1875 -12.679688 4.1875 -12.609375 L 4.1875 -4.015625 C 4.1875 -3.148438 4.332031 -2.550781 4.625 -2.21875 C 4.925781 -1.894531 5.390625 -1.742188 6.015625 -1.765625 L 6.296875 -1.765625 C 6.472656 -1.765625 6.5625 -1.671875 6.5625 -1.484375 L 6.5625 -0.28125 C 6.5625 -0.09375 6.472656 0 6.296875 0 L 5.59375 0 C 4.488281 0 3.648438 -0.238281 3.078125 -0.71875 C 2.503906 -1.195312 2.21875 -2.097656 2.21875 -3.421875 L 2.21875 -12.609375 C 2.21875 -12.679688 2.179688 -12.71875 2.109375 -12.71875 L 1.015625 -12.71875 C 0.828125 -12.71875 0.734375 -12.8125 0.734375 -13 L 0.734375 -13.921875 C 0.734375 -14.109375 0.828125 -14.203125 1.015625 -14.203125 L 2.109375 -14.203125 C 2.179688 -14.203125 2.21875 -14.238281 2.21875 -14.3125 L 2.21875 -17.46875 C 2.21875 -17.65625 2.3125 -17.75 2.5 -17.75 L 3.90625 -17.75 C 4.09375 -17.75 4.1875 -17.65625 4.1875 -17.46875 L 4.1875 -14.3125 C 4.1875 -14.238281 4.222656 -14.203125 4.296875 -14.203125 L 6.4375 -14.203125 C 6.613281 -14.203125 6.703125 -14.109375 6.703125 -13.921875 Z M 6.703125 -13 "/></g></g></g><g fill="#000000" fill-opacity="1"><g transform="translate(744.066172, 447.822)"><g><path d="M 2.921875 -16.796875 C 2.453125 -16.796875 2.070312 -16.941406 1.78125 -17.234375 C 1.488281 -17.535156 1.34375 -17.910156 1.34375 -18.359375 C 1.34375 -18.828125 1.488281 -19.207031 1.78125 -19.5 C 2.070312 -19.789062 2.453125 -19.9375 2.921875 -19.9375 C 3.367188 -19.9375 3.738281 -19.789062 4.03125 -19.5 C 4.320312 -19.207031 4.46875 -18.828125 4.46875 -18.359375 C 4.46875 -17.910156 4.320312 -17.535156 4.03125 -17.234375 C 3.738281 -16.941406 3.367188 -16.796875 2.921875 -16.796875 Z M 2.21875 0 C 2.03125 0 1.9375 -0.09375 1.9375 -0.28125 L 1.9375 -13.921875 C 1.9375 -14.109375 2.03125 -14.203125 2.21875 -14.203125 L 3.65625 -14.203125 C 3.84375 -14.203125 3.9375 -14.109375 3.9375 -13.921875 L 3.9375 -0.28125 C 3.9375 -0.09375 3.84375 0 3.65625 0 Z M 2.21875 0 "/></g></g></g><g fill="#000000" fill-opacity="1"><g transform="translate(749.905029, 447.822)"><g><path d="M 6.765625 -14.40625 C 7.910156 -14.40625 8.796875 -14.007812 9.421875 -13.21875 C 10.046875 -12.4375 10.359375 -11.34375 10.359375 -9.9375 L 10.359375 -0.28125 C 10.359375 -0.09375 10.265625 0 10.078125 0 L 8.640625 0 C 8.460938 0 8.375 -0.09375 8.375 -0.28125 L 8.375 -9.765625 C 8.375 -10.679688 8.171875 -11.390625 7.765625 -11.890625 C 7.359375 -12.398438 6.800781 -12.65625 6.09375 -12.65625 C 5.34375 -12.65625 4.753906 -12.382812 4.328125 -11.84375 C 3.910156 -11.300781 3.703125 -10.5625 3.703125 -9.625 L 3.703125 -0.28125 C 3.703125 -0.09375 3.609375 0 3.421875 0 L 2 0 C 1.8125 0 1.71875 -0.09375 1.71875 -0.28125 L 1.71875 -13.921875 C 1.71875 -14.109375 1.8125 -14.203125 2 -14.203125 L 3.421875 -14.203125 C 3.609375 -14.203125 3.703125 -14.109375 3.703125 -13.921875 L 3.703125 -13.03125 C 3.703125 -12.988281 3.71875 -12.957031 3.75 -12.9375 C 3.789062 -12.925781 3.820312 -12.945312 3.84375 -13 C 4.1875 -13.46875 4.613281 -13.816406 5.125 -14.046875 C 5.632812 -14.285156 6.179688 -14.40625 6.765625 -14.40625 Z M 6.765625 -14.40625 "/></g></g></g><g fill="#000000" fill-opacity="1"><g transform="translate(761.807293, 447.822)"><g><path d="M 8.171875 -13.921875 C 8.171875 -14.109375 8.265625 -14.203125 8.453125 -14.203125 L 9.890625 -14.203125 C 10.078125 -14.203125 10.171875 -14.109375 10.171875 -13.921875 L 10.171875 -0.28125 C 10.171875 1.71875 9.707031 3.238281 8.78125 4.28125 C 7.851562 5.320312 6.300781 5.796875 4.125 5.703125 C 3.9375 5.679688 3.84375 5.578125 3.84375 5.390625 L 3.84375 4.1875 C 3.84375 4 3.9375 3.90625 4.125 3.90625 C 5.625 3.9375 6.671875 3.59375 7.265625 2.875 C 7.867188 2.15625 8.171875 1.046875 8.171875 -0.453125 L 8.171875 -1.296875 C 8.171875 -1.328125 8.15625 -1.351562 8.125 -1.375 C 8.101562 -1.394531 8.070312 -1.382812 8.03125 -1.34375 C 7.707031 -0.875 7.296875 -0.519531 6.796875 -0.28125 C 6.304688 -0.0390625 5.78125 0.078125 5.21875 0.078125 C 4.039062 0.078125 3.109375 -0.3125 2.421875 -1.09375 C 1.742188 -1.882812 1.40625 -2.925781 1.40625 -4.21875 L 1.40625 -10.140625 C 1.40625 -11.453125 1.742188 -12.492188 2.421875 -13.265625 C 3.109375 -14.046875 4.039062 -14.4375 5.21875 -14.4375 C 5.78125 -14.4375 6.304688 -14.316406 6.796875 -14.078125 C 7.296875 -13.847656 7.707031 -13.5 8.03125 -13.03125 C 8.070312 -12.96875 8.101562 -12.941406 8.125 -12.953125 C 8.15625 -12.960938 8.171875 -13 8.171875 -13.0625 Z M 5.8125 -1.65625 C 6.5 -1.65625 7.0625 -1.898438 7.5 -2.390625 C 7.945312 -2.890625 8.171875 -3.535156 8.171875 -4.328125 L 8.171875 -10 C 8.171875 -10.800781 7.945312 -11.445312 7.5 -11.9375 C 7.0625 -12.4375 6.5 -12.6875 5.8125 -12.6875 C 5.101562 -12.6875 4.519531 -12.4375 4.0625 -11.9375 C 3.613281 -11.445312 3.390625 -10.800781 3.390625 -10 L 3.390625 -4.328125 C 3.390625 -3.535156 3.613281 -2.890625 4.0625 -2.390625 C 4.519531 -1.898438 5.101562 -1.65625 5.8125 -1.65625 Z M 5.8125 -1.65625 "/></g></g></g><g fill="#000000" fill-opacity="1"><g transform="translate(773.400789, 447.822)"><g><path d="M 0.90625 0 C 0.71875 0 0.625 -0.09375 0.625 -0.28125 L 0.625 -1.3125 C 0.625 -1.5 0.71875 -1.59375 0.90625 -1.59375 L 9.65625 -1.59375 C 9.84375 -1.59375 9.9375 -1.5 9.9375 -1.3125 L 9.9375 -0.28125 C 9.9375 -0.09375 9.84375 0 9.65625 0 Z M 0.90625 0 "/></g></g></g><g fill="#000000" fill-opacity="1"><g transform="translate(783.955632, 447.822)"><g><path d="M 6.90625 -19.6875 C 8.269531 -19.6875 9.375 -19.179688 10.21875 -18.171875 C 11.0625 -17.171875 11.484375 -15.859375 11.484375 -14.234375 C 11.484375 -12.628906 11.070312 -11.332031 10.25 -10.34375 C 9.425781 -9.363281 8.335938 -8.875 6.984375 -8.875 L 4.09375 -8.875 C 4.019531 -8.875 3.984375 -8.835938 3.984375 -8.765625 L 3.984375 -0.28125 C 3.984375 -0.09375 3.890625 0 3.703125 0 L 2.28125 0 C 2.09375 0 2 -0.09375 2 -0.28125 L 2 -19.40625 C 2 -19.59375 2.09375 -19.6875 2.28125 -19.6875 Z M 6.65625 -10.5 C 7.5 -10.5 8.179688 -10.832031 8.703125 -11.5 C 9.222656 -12.175781 9.484375 -13.078125 9.484375 -14.203125 C 9.484375 -15.328125 9.222656 -16.226562 8.703125 -16.90625 C 8.179688 -17.59375 7.5 -17.9375 6.65625 -17.9375 L 4.09375 -17.9375 C 4.019531 -17.9375 3.984375 -17.898438 3.984375 -17.828125 L 3.984375 -10.609375 C 3.984375 -10.535156 4.019531 -10.5 4.09375 -10.5 Z M 6.65625 -10.5 "/></g></g></g><g fill="#000000" fill-opacity="1"><g transform="translate(796.363182, 447.822)"><g><path d="M 5.8125 0.21875 C 4.46875 0.21875 3.394531 -0.171875 2.59375 -0.953125 C 1.800781 -1.742188 1.40625 -2.785156 1.40625 -4.078125 L 1.40625 -10.109375 C 1.40625 -11.378906 1.804688 -12.414062 2.609375 -13.21875 C 3.410156 -14.03125 4.476562 -14.4375 5.8125 -14.4375 C 7.15625 -14.4375 8.226562 -14.03125 9.03125 -13.21875 C 9.84375 -12.414062 10.25 -11.378906 10.25 -10.109375 L 10.25 -4.078125 C 10.25 -2.785156 9.84375 -1.742188 9.03125 -0.953125 C 8.226562 -0.171875 7.15625 0.21875 5.8125 0.21875 Z M 5.8125 -1.546875 C 6.519531 -1.546875 7.101562 -1.785156 7.5625 -2.265625 C 8.019531 -2.753906 8.25 -3.40625 8.25 -4.21875 L 8.25 -10 C 8.25 -10.800781 8.019531 -11.445312 7.5625 -11.9375 C 7.101562 -12.4375 6.519531 -12.6875 5.8125 -12.6875 C 5.101562 -12.6875 4.519531 -12.4375 4.0625 -11.9375 C 3.613281 -11.445312 3.390625 -10.800781 3.390625 -10 L 3.390625 -4.21875 C 3.390625 -3.40625 3.613281 -2.753906 4.0625 -2.265625 C 4.519531 -1.785156 5.101562 -1.546875 5.8125 -1.546875 Z M 5.8125 -1.546875 "/></g></g></g><g fill="#000000" fill-opacity="1"><g transform="translate(808.012816, 447.822)"><g><path d="M 6.515625 -14.34375 C 6.984375 -14.34375 7.382812 -14.238281 7.71875 -14.03125 C 7.851562 -13.957031 7.898438 -13.835938 7.859375 -13.671875 L 7.53125 -12.21875 C 7.507812 -12.050781 7.394531 -11.992188 7.1875 -12.046875 C 6.957031 -12.160156 6.675781 -12.21875 6.34375 -12.21875 C 6.195312 -12.21875 6.085938 -12.207031 6.015625 -12.1875 C 5.335938 -12.144531 4.78125 -11.789062 4.34375 -11.125 C 3.914062 -10.46875 3.703125 -9.660156 3.703125 -8.703125 L 3.703125 -0.28125 C 3.703125 -0.09375 3.609375 0 3.421875 0 L 2 0 C 1.8125 0 1.71875 -0.09375 1.71875 -0.28125 L 1.71875 -13.921875 C 1.71875 -14.109375 1.8125 -14.203125 2 -14.203125 L 3.421875 -14.203125 C 3.609375 -14.203125 3.703125 -14.109375 3.703125 -13.921875 L 3.703125 -12.234375 C 3.703125 -12.179688 3.71875 -12.15625 3.75 -12.15625 C 3.78125 -12.15625 3.8125 -12.175781 3.84375 -12.21875 C 4.382812 -13.632812 5.273438 -14.34375 6.515625 -14.34375 Z M 6.515625 -14.34375 "/></g></g></g><g fill="#000000" fill-opacity="1"><g transform="translate(816.209666, 447.822)"><g><path d="M 6.703125 -13 C 6.703125 -12.8125 6.613281 -12.71875 6.4375 -12.71875 L 4.296875 -12.71875 C 4.222656 -12.71875 4.1875 -12.679688 4.1875 -12.609375 L 4.1875 -4.015625 C 4.1875 -3.148438 4.332031 -2.550781 4.625 -2.21875 C 4.925781 -1.894531 5.390625 -1.742188 6.015625 -1.765625 L 6.296875 -1.765625 C 6.472656 -1.765625 6.5625 -1.671875 6.5625 -1.484375 L 6.5625 -0.28125 C 6.5625 -0.09375 6.472656 0 6.296875 0 L 5.59375 0 C 4.488281 0 3.648438 -0.238281 3.078125 -0.71875 C 2.503906 -1.195312 2.21875 -2.097656 2.21875 -3.421875 L 2.21875 -12.609375 C 2.21875 -12.679688 2.179688 -12.71875 2.109375 -12.71875 L 1.015625 -12.71875 C 0.828125 -12.71875 0.734375 -12.8125 0.734375 -13 L 0.734375 -13.921875 C 0.734375 -14.109375 0.828125 -14.203125 1.015625 -14.203125 L 2.109375 -14.203125 C 2.179688 -14.203125 2.21875 -14.238281 2.21875 -14.3125 L 2.21875 -17.46875 C 2.21875 -17.65625 2.3125 -17.75 2.5 -17.75 L 3.90625 -17.75 C 4.09375 -17.75 4.1875 -17.65625 4.1875 -17.46875 L 4.1875 -14.3125 C 4.1875 -14.238281 4.222656 -14.203125 4.296875 -14.203125 L 6.4375 -14.203125 C 6.613281 -14.203125 6.703125 -14.109375 6.703125 -13.921875 Z M 6.703125 -13 "/></g></g></g><g fill="#000000" fill-opacity="1"><g transform="translate(823.704737, 447.822)"><g><path d="M 5.875 -14.4375 C 7.175781 -14.4375 8.21875 -14.007812 9 -13.15625 C 9.789062 -12.300781 10.1875 -11.164062 10.1875 -9.75 L 10.1875 -0.28125 C 10.1875 -0.09375 10.09375 0 9.90625 0 L 8.484375 0 C 8.296875 0 8.203125 -0.09375 8.203125 -0.28125 L 8.203125 -1.125 C 8.203125 -1.15625 8.1875 -1.175781 8.15625 -1.1875 C 8.125 -1.195312 8.09375 -1.1875 8.0625 -1.15625 C 7.363281 -0.238281 6.320312 0.21875 4.9375 0.21875 C 3.90625 0.21875 3.007812 -0.0703125 2.25 -0.65625 C 1.5 -1.25 1.125 -2.296875 1.125 -3.796875 C 1.125 -5.378906 1.582031 -6.539062 2.5 -7.28125 C 3.414062 -8.019531 4.625 -8.390625 6.125 -8.390625 L 8.09375 -8.390625 C 8.164062 -8.390625 8.203125 -8.425781 8.203125 -8.5 L 8.203125 -9.609375 C 8.203125 -10.535156 7.984375 -11.28125 7.546875 -11.84375 C 7.117188 -12.40625 6.539062 -12.6875 5.8125 -12.6875 C 5.25 -12.6875 4.765625 -12.5 4.359375 -12.125 C 3.960938 -11.75 3.726562 -11.273438 3.65625 -10.703125 C 3.65625 -10.515625 3.5625 -10.421875 3.375 -10.421875 L 1.796875 -10.4375 C 1.703125 -10.4375 1.628906 -10.460938 1.578125 -10.515625 C 1.535156 -10.578125 1.523438 -10.644531 1.546875 -10.71875 C 1.640625 -11.820312 2.085938 -12.71875 2.890625 -13.40625 C 3.691406 -14.09375 4.6875 -14.4375 5.875 -14.4375 Z M 5.359375 -1.515625 C 6.128906 -1.515625 6.796875 -1.757812 7.359375 -2.25 C 7.921875 -2.75 8.203125 -3.441406 8.203125 -4.328125 L 8.203125 -6.6875 C 8.203125 -6.757812 8.164062 -6.796875 8.09375 -6.796875 L 6.09375 -6.796875 C 5.195312 -6.796875 4.484375 -6.554688 3.953125 -6.078125 C 3.429688 -5.597656 3.171875 -4.890625 3.171875 -3.953125 C 3.171875 -3.128906 3.367188 -2.515625 3.765625 -2.109375 C 4.171875 -1.710938 4.703125 -1.515625 5.359375 -1.515625 Z M 5.359375 -1.515625 "/></g></g></g><g fill="#000000" fill-opacity="1"><g transform="translate(835.298233, 447.822)"><g><path d="M 1.828125 0 C 1.640625 0 1.546875 -0.09375 1.546875 -0.28125 L 1.546875 -19.375 C 1.546875 -19.5625 1.640625 -19.65625 1.828125 -19.65625 L 3.25 -19.65625 C 3.4375 -19.65625 3.53125 -19.5625 3.53125 -19.375 L 3.53125 -0.28125 C 3.53125 -0.09375 3.4375 0 3.25 0 Z M 1.828125 0 "/></g></g></g></svg>